<mxfile host="app.diagrams.net" agent="Mozilla/5.0 (Windows NT 10.0; Win64; x64) AppleWebKit/537.36 (KHTML, like Gecko) Chrome/134.0.0.0 Safari/537.36" version="26.1.1">
  <diagram name="Page-1" id="86aCHBkzNPb1HuERnyKk">
    <mxGraphModel dx="1204" dy="806" grid="1" gridSize="10" guides="1" tooltips="1" connect="1" arrows="1" fold="1" page="1" pageScale="1" pageWidth="850" pageHeight="1100" math="0" shadow="0">
      <root>
        <mxCell id="0" />
        <mxCell id="1" parent="0" />
        <mxCell id="AH3a5oug6vAK1DJg3yPn-23" style="edgeStyle=orthogonalEdgeStyle;rounded=0;orthogonalLoop=1;jettySize=auto;html=1;" edge="1" parent="1" source="AH3a5oug6vAK1DJg3yPn-1" target="AH3a5oug6vAK1DJg3yPn-2">
          <mxGeometry relative="1" as="geometry" />
        </mxCell>
        <mxCell id="AH3a5oug6vAK1DJg3yPn-1" value="" style="ellipse;fillColor=strokeColor;html=1;" vertex="1" parent="1">
          <mxGeometry x="70" y="190" width="30" height="30" as="geometry" />
        </mxCell>
        <mxCell id="AH3a5oug6vAK1DJg3yPn-2" value="Welcome Screen" style="html=1;align=center;verticalAlign=top;rounded=1;absoluteArcSize=1;arcSize=10;dashed=0;whiteSpace=wrap;" vertex="1" parent="1">
          <mxGeometry x="160" y="185" width="140" height="40" as="geometry" />
        </mxCell>
        <mxCell id="AH3a5oug6vAK1DJg3yPn-14" style="edgeStyle=orthogonalEdgeStyle;rounded=0;orthogonalLoop=1;jettySize=auto;html=1;" edge="1" parent="1" source="AH3a5oug6vAK1DJg3yPn-3" target="AH3a5oug6vAK1DJg3yPn-10">
          <mxGeometry relative="1" as="geometry" />
        </mxCell>
        <mxCell id="AH3a5oug6vAK1DJg3yPn-21" style="edgeStyle=orthogonalEdgeStyle;rounded=0;orthogonalLoop=1;jettySize=auto;html=1;" edge="1" parent="1" source="AH3a5oug6vAK1DJg3yPn-3" target="AH3a5oug6vAK1DJg3yPn-4">
          <mxGeometry relative="1" as="geometry" />
        </mxCell>
        <mxCell id="AH3a5oug6vAK1DJg3yPn-3" value="Avatar and Player selection Screen" style="html=1;align=center;verticalAlign=top;rounded=1;absoluteArcSize=1;arcSize=10;dashed=0;whiteSpace=wrap;" vertex="1" parent="1">
          <mxGeometry x="590" y="185" width="140" height="40" as="geometry" />
        </mxCell>
        <mxCell id="AH3a5oug6vAK1DJg3yPn-24" style="edgeStyle=orthogonalEdgeStyle;rounded=0;orthogonalLoop=1;jettySize=auto;html=1;entryX=0;entryY=0.5;entryDx=0;entryDy=0;" edge="1" parent="1" source="AH3a5oug6vAK1DJg3yPn-4" target="AH3a5oug6vAK1DJg3yPn-22">
          <mxGeometry relative="1" as="geometry" />
        </mxCell>
        <mxCell id="AH3a5oug6vAK1DJg3yPn-4" value="Game Screen" style="html=1;align=center;verticalAlign=top;rounded=1;absoluteArcSize=1;arcSize=10;dashed=0;whiteSpace=wrap;" vertex="1" parent="1">
          <mxGeometry x="790" y="185" width="140" height="40" as="geometry" />
        </mxCell>
        <mxCell id="AH3a5oug6vAK1DJg3yPn-10" value="Player 1 : name&lt;div&gt;Player 1 : location (API call)&lt;/div&gt;&lt;div&gt;&lt;br&gt;&lt;div&gt;Player 2 : name&lt;/div&gt;&lt;div&gt;Player 2 : location (API call)&lt;/div&gt;&lt;div&gt;&lt;br&gt;&lt;/div&gt;&lt;/div&gt;" style="shape=note2;boundedLbl=1;whiteSpace=wrap;html=1;size=25;verticalAlign=top;align=left;spacingLeft=5;" vertex="1" parent="1">
          <mxGeometry x="580" y="320" width="160" height="110" as="geometry" />
        </mxCell>
        <mxCell id="AH3a5oug6vAK1DJg3yPn-11" value="Information required:" style="resizeWidth=1;part=1;strokeColor=none;fillColor=none;align=left;spacingLeft=5;html=1;whiteSpace=wrap;" vertex="1" parent="AH3a5oug6vAK1DJg3yPn-10">
          <mxGeometry width="160" height="25" relative="1" as="geometry" />
        </mxCell>
        <mxCell id="AH3a5oug6vAK1DJg3yPn-18" style="edgeStyle=orthogonalEdgeStyle;rounded=0;orthogonalLoop=1;jettySize=auto;html=1;entryX=0.5;entryY=1;entryDx=0;entryDy=0;" edge="1" parent="1" source="AH3a5oug6vAK1DJg3yPn-16" target="AH3a5oug6vAK1DJg3yPn-2">
          <mxGeometry relative="1" as="geometry">
            <Array as="points">
              <mxPoint x="450" y="275" />
              <mxPoint x="230" y="275" />
            </Array>
          </mxGeometry>
        </mxCell>
        <mxCell id="AH3a5oug6vAK1DJg3yPn-20" style="edgeStyle=orthogonalEdgeStyle;rounded=0;orthogonalLoop=1;jettySize=auto;html=1;" edge="1" parent="1" source="AH3a5oug6vAK1DJg3yPn-16" target="AH3a5oug6vAK1DJg3yPn-3">
          <mxGeometry relative="1" as="geometry" />
        </mxCell>
        <mxCell id="AH3a5oug6vAK1DJg3yPn-16" value="Are you older than 18 ?" style="strokeWidth=2;html=1;shape=mxgraph.flowchart.decision;whiteSpace=wrap;" vertex="1" parent="1">
          <mxGeometry x="400" y="155" width="100" height="100" as="geometry" />
        </mxCell>
        <mxCell id="AH3a5oug6vAK1DJg3yPn-17" style="edgeStyle=orthogonalEdgeStyle;rounded=0;orthogonalLoop=1;jettySize=auto;html=1;entryX=0;entryY=0.5;entryDx=0;entryDy=0;entryPerimeter=0;" edge="1" parent="1" source="AH3a5oug6vAK1DJg3yPn-2" target="AH3a5oug6vAK1DJg3yPn-16">
          <mxGeometry relative="1" as="geometry" />
        </mxCell>
        <mxCell id="AH3a5oug6vAK1DJg3yPn-22" value="" style="ellipse;html=1;shape=endState;fillColor=strokeColor;" vertex="1" parent="1">
          <mxGeometry x="1000" y="190" width="30" height="30" as="geometry" />
        </mxCell>
      </root>
    </mxGraphModel>
  </diagram>
</mxfile>
